<?xml version="1.0" encoding="UTF-8" standalone="no"?>
<!DOCTYPE svg PUBLIC "-//W3C//DTD SVG 1.0//EN"
 "http://www.w3.org/TR/2001/REC-SVG-20010904/DTD/svg10.dtd" [
 <!ATTLIST svg xmlns:xlink CDATA #FIXED "http://www.w3.org/1999/xlink">
]>
<!-- Generated by libgvc version 2.20.2 (Tue Mar &#160;2 21:46:26 UTC 2010)
 -->
<!-- Title: graphname Pages: 1 -->
<svg width="707pt" height="314pt"
 viewBox="0.00 0.00 707.00 314.00" xmlns="http://www.w3.org/2000/svg" xmlns:xlink="http://www.w3.org/1999/xlink">
<g id="graph0" class="graph" transform="scale(1 1) rotate(0) translate(4 310)">
<title>graphname</title>
<polygon style="fill:white;stroke:white;" points="-4,4 -4,-310 703,-310 703,4 -4,4"/>
<!-- bpmui -->
<g id="node1" class="node"><title>bpmui</title>
<ellipse style="fill:none;stroke:black;" cx="338" cy="-288" rx="39.8056" ry="18"/>
<text text-anchor="middle" x="338" y="-283.9" style="font-family:Times New Roman;font-size:14.00;">bpmui</text>
</g>
<!-- wfui -->
<g id="node2" class="node"><title>wfui</title>
<ellipse style="fill:none;stroke:black;" cx="51" cy="-198" rx="31.9646" ry="18"/>
<text text-anchor="middle" x="51" y="-193.9" style="font-family:Times New Roman;font-size:14.00;">wfui</text>
</g>
<!-- bpmui&#45;&gt;wfui -->
<g id="edge8" class="edge"><title>bpmui&#45;&gt;wfui</title>
<path style="fill:none;stroke:#009a96;" d="M298,-287C214,-283 23,-273 4,-252 -6,-240 5,-226 20,-216"/>
<polygon style="fill:#009a96;stroke:#009a96;" points="22.1,-218.8 28,-210 17.9,-213.2 22.1,-218.8"/>
<text text-anchor="middle" x="44" y="-238.9" style="font-family:Times New Roman;font-size:14.00;fill:#009a96;">Cycle 5 (4)</text>
</g>
<!-- authentication -->
<g id="node3" class="node"><title>authentication</title>
<ellipse style="fill:none;stroke:black;" cx="264" cy="-198" rx="80.8024" ry="18"/>
<text text-anchor="middle" x="264" y="-193.9" style="font-family:Times New Roman;font-size:14.00;">authentication</text>
</g>
<!-- bpmui&#45;&gt;authentication -->
<g id="edge2" class="edge"><title>bpmui&#45;&gt;authentication</title>
<path style="fill:none;stroke:#002f5b;" d="M299,-283C262,-278 211,-268 198,-252 188,-239 198,-227 214,-219"/>
<polygon style="fill:#002f5b;stroke:#002f5b;" points="215.958,-221.916 223,-214 212.559,-215.797 215.958,-221.916"/>
<text text-anchor="middle" x="239" y="-238.9" style="font-family:Times New Roman;font-size:14.00;fill:#002f5b;">Cycle 1 (7)</text>
</g>
<!-- wfadaptor -->
<g id="node4" class="node"><title>wfadaptor</title>
<ellipse style="fill:none;stroke:black;" cx="391" cy="-108" rx="59.9551" ry="18"/>
<text text-anchor="middle" x="391" y="-103.9" style="font-family:Times New Roman;font-size:14.00;">wfadaptor</text>
</g>
<!-- bpmui&#45;&gt;wfadaptor -->
<g id="edge4" class="edge"><title>bpmui&#45;&gt;wfadaptor</title>
<path style="fill:none;stroke:#0065ef;" d="M355,-272C360,-266 366,-259 369,-252 386,-215 390,-166 391,-136"/>
<polygon style="fill:#0065ef;stroke:#0065ef;" points="394.5,-136 391,-126 387.5,-136 394.5,-136"/>
<text text-anchor="middle" x="427" y="-193.9" style="font-family:Times New Roman;font-size:14.00;fill:#0065ef;">Cycle 2 (34)</text>
</g>
<!-- servicetask -->
<g id="node6" class="node"><title>servicetask</title>
<ellipse style="fill:none;stroke:black;" cx="548" cy="-198" rx="64.1231" ry="18"/>
<text text-anchor="middle" x="548" y="-193.9" style="font-family:Times New Roman;font-size:14.00;">servicetask</text>
</g>
<!-- bpmui&#45;&gt;servicetask -->
<g id="edge6" class="edge"><title>bpmui&#45;&gt;servicetask</title>
<path style="fill:none;stroke:#00d316;" d="M363,-274C384,-262 414,-246 443,-234 460,-226 478,-220 494,-214"/>
<polygon style="fill:#00d316;stroke:#00d316;" points="495.427,-217.226 504,-211 493.416,-210.521 495.427,-217.226"/>
<text text-anchor="middle" x="480" y="-238.9" style="font-family:Times New Roman;font-size:14.00;fill:#00d316;">Cycle 4 (1)</text>
</g>
<!-- wfui&#45;&gt;bpmui -->
<g id="edge10" class="edge"><title>wfui&#45;&gt;bpmui</title>
<path style="fill:none;stroke:#009a96;" d="M66,-214C79,-226 97,-243 117,-252 147,-265 233,-277 289,-283"/>
<polygon style="fill:#009a96;stroke:#009a96;" points="288.701,-286.488 299,-284 289.398,-279.522 288.701,-286.488"/>
<text text-anchor="middle" x="162" y="-238.9" style="font-family:Times New Roman;font-size:14.00;fill:#009a96;">Cycle 5 (4)</text>
</g>
<!-- authentication&#45;&gt;bpmui -->
<g id="edge12" class="edge"><title>authentication&#45;&gt;bpmui</title>
<path style="fill:none;stroke:#002f5b;" d="M272,-216C278,-227 286,-241 295,-252 299,-257 304,-262 309,-266"/>
<polygon style="fill:#002f5b;stroke:#002f5b;" points="306.9,-268.8 317,-272 311.1,-263.2 306.9,-268.8"/>
<text text-anchor="middle" x="332" y="-238.9" style="font-family:Times New Roman;font-size:14.00;fill:#002f5b;">Cycle 1 (4)</text>
</g>
<!-- authentication&#45;&gt;wfadaptor -->
<g id="edge14" class="edge"><title>authentication&#45;&gt;wfadaptor</title>
<path style="fill:none;stroke:#009c82;" d="M270,-180C275,-168 283,-153 295,-144 305,-134 319,-127 332,-122"/>
<polygon style="fill:#009c82;stroke:#009c82;" points="333.427,-125.226 342,-119 331.416,-118.521 333.427,-125.226"/>
<text text-anchor="middle" x="332" y="-148.9" style="font-family:Times New Roman;font-size:14.00;fill:#009c82;">Cycle 3 (2)</text>
</g>
<!-- wfadaptor&#45;&gt;bpmui -->
<g id="edge16" class="edge"><title>wfadaptor&#45;&gt;bpmui</title>
<path style="fill:none;stroke:#0065ef;" d="M443,-117C504,-128 600,-151 621,-180 630,-192 623,-200 621,-216 618,-232 621,-241 608,-252 591,-264 461,-278 388,-284"/>
<polygon style="fill:#0065ef;stroke:#0065ef;" points="387.602,-280.522 378,-285 388.299,-287.488 387.602,-280.522"/>
<text text-anchor="middle" x="662" y="-193.9" style="font-family:Times New Roman;font-size:14.00;fill:#0065ef;">Cycle 2 (3)</text>
</g>
<!-- cmisadaptor -->
<g id="node5" class="node"><title>cmisadaptor</title>
<ellipse style="fill:none;stroke:black;" cx="285" cy="-18" rx="68.7933" ry="18"/>
<text text-anchor="middle" x="285" y="-13.9" style="font-family:Times New Roman;font-size:14.00;">cmisadaptor</text>
</g>
<!-- wfadaptor&#45;&gt;cmisadaptor -->
<g id="edge18" class="edge"><title>wfadaptor&#45;&gt;cmisadaptor</title>
<path style="fill:none;stroke:#009c82;" d="M371,-91C355,-77 332,-57 314,-42"/>
<polygon style="fill:#009c82;stroke:#009c82;" points="315.831,-38.9511 306,-35 311.221,-44.2191 315.831,-38.9511"/>
<text text-anchor="middle" x="384" y="-58.9" style="font-family:Times New Roman;font-size:14.00;fill:#009c82;">Cycle 3 (2)</text>
</g>
<!-- cmisadaptor&#45;&gt;authentication -->
<g id="edge20" class="edge"><title>cmisadaptor&#45;&gt;authentication</title>
<path style="fill:none;stroke:#009c82;" d="M273,-36C264,-50 253,-70 248,-90 241,-117 248,-148 254,-170"/>
<polygon style="fill:#009c82;stroke:#009c82;" points="250.774,-171.427 257,-180 257.479,-169.416 250.774,-171.427"/>
<text text-anchor="middle" x="285" y="-103.9" style="font-family:Times New Roman;font-size:14.00;fill:#009c82;">Cycle 3 (1)</text>
</g>
<!-- servicetask&#45;&gt;bpmui -->
<g id="edge22" class="edge"><title>servicetask&#45;&gt;bpmui</title>
<path style="fill:none;stroke:#00d316;" d="M542,-216C537,-228 529,-243 517,-252 497,-266 433,-276 387,-283"/>
<polygon style="fill:#00d316;stroke:#00d316;" points="386.602,-279.522 377,-284 387.299,-286.488 386.602,-279.522"/>
<text text-anchor="middle" x="567" y="-238.9" style="font-family:Times New Roman;font-size:14.00;fill:#00d316;">Cycle 4 (2)</text>
</g>
</g>
</svg>
