<?xml version="1.0" encoding="UTF-8" standalone="no"?>
<!DOCTYPE svg PUBLIC "-//W3C//DTD SVG 1.0//EN"
 "http://www.w3.org/TR/2001/REC-SVG-20010904/DTD/svg10.dtd" [
 <!ATTLIST svg xmlns:xlink CDATA #FIXED "http://www.w3.org/1999/xlink">
]>
<!-- Generated by libgvc version 2.20.2 (Tue Mar &#160;2 21:46:26 UTC 2010)
 -->
<!-- Title: graphname Pages: 1 -->
<svg width="700pt" height="404pt"
 viewBox="0.00 0.00 700.00 404.00" xmlns="http://www.w3.org/2000/svg" xmlns:xlink="http://www.w3.org/1999/xlink">
<g id="graph0" class="graph" transform="scale(1 1) rotate(0) translate(4 400)">
<title>graphname</title>
<polygon style="fill:white;stroke:white;" points="-4,4 -4,-400 696,-400 696,4 -4,4"/>
<!-- wfadaptor.models -->
<g id="node1" class="node"><title>wfadaptor.models</title>
<ellipse style="fill:#0065d6;stroke:#001a29;" cx="288" cy="-378" rx="95.8938" ry="18"/>
<text text-anchor="middle" x="288" y="-373.9" style="font-family:Times New Roman;font-size:14.00;fill:#001a29;">wfadaptor.models</text>
</g>
<!-- wfadaptor.utils -->
<g id="node2" class="node"><title>wfadaptor.utils</title>
<ellipse style="fill:#0065d6;stroke:#001a29;" cx="340" cy="-198" rx="82.1898" ry="18"/>
<text text-anchor="middle" x="340" y="-193.9" style="font-family:Times New Roman;font-size:14.00;fill:#001a29;">wfadaptor.utils</text>
</g>
<!-- wfadaptor.models&#45;&gt;wfadaptor.utils -->
<g id="edge2" class="edge"><title>wfadaptor.models&#45;&gt;wfadaptor.utils</title>
<path style="fill:none;stroke:#0065ef;" d="M270,-360C250,-338 223,-301 239,-270 250,-247 272,-231 293,-219"/>
<polygon style="fill:#0065ef;stroke:#0065ef;" points="294.958,-221.916 302,-214 291.559,-215.797 294.958,-221.916"/>
<text text-anchor="middle" x="276" y="-283.9" style="font-family:Times New Roman;font-size:14.00;">Cycle 2 (1)</text>
</g>
<!-- wfadaptor.managers -->
<g id="node7" class="node"><title>wfadaptor.managers</title>
<ellipse style="fill:#0065d6;stroke:#001a29;" cx="431" cy="-288" rx="109.097" ry="18"/>
<text text-anchor="middle" x="431" y="-283.9" style="font-family:Times New Roman;font-size:14.00;fill:#001a29;">wfadaptor.managers</text>
</g>
<!-- wfadaptor.models&#45;&gt;wfadaptor.managers -->
<g id="edge4" class="edge"><title>wfadaptor.models&#45;&gt;wfadaptor.managers</title>
<path style="fill:none;stroke:#009c82;" d="M316,-361C338,-347 370,-326 394,-311"/>
<polygon style="fill:#009c82;stroke:#009c82;" points="396.621,-313.459 403,-305 392.738,-307.635 396.621,-313.459"/>
<text text-anchor="middle" x="411" y="-328.9" style="font-family:Times New Roman;font-size:14.00;">Cycle 3 (2)</text>
</g>
<!-- wfadaptor.wfapi -->
<g id="node3" class="node"><title>wfadaptor.wfapi</title>
<ellipse style="fill:#0065d6;stroke:#001a29;" cx="88" cy="-108" rx="87.7515" ry="18"/>
<text text-anchor="middle" x="88" y="-103.9" style="font-family:Times New Roman;font-size:14.00;fill:#001a29;">wfadaptor.wfapi</text>
</g>
<!-- wfadaptor.utils&#45;&gt;wfadaptor.wfapi -->
<g id="edge8" class="edge"><title>wfadaptor.utils&#45;&gt;wfadaptor.wfapi</title>
<path style="fill:none;stroke:#0065ef;" d="M297,-183C254,-167 188,-143 142,-127"/>
<polygon style="fill:#0065ef;stroke:#0065ef;" points="142.584,-123.521 132,-124 140.573,-130.226 142.584,-123.521"/>
<text text-anchor="middle" x="275" y="-148.9" style="font-family:Times New Roman;font-size:14.00;">Cycle 2 (1)</text>
</g>
<!-- bpmui.models -->
<g id="node5" class="node"><title>bpmui.models</title>
<ellipse style="fill:#00cedd;stroke:#004edd;" cx="615" cy="-108" rx="77.1319" ry="18"/>
<text text-anchor="middle" x="615" y="-103.9" style="font-family:Times New Roman;font-size:14.00;fill:#004edd;">bpmui.models</text>
</g>
<!-- wfadaptor.utils&#45;&gt;bpmui.models -->
<g id="edge10" class="edge"><title>wfadaptor.utils&#45;&gt;bpmui.models</title>
<path style="fill:none;stroke:#009c82;" d="M390,-184C412,-177 437,-169 460,-162 494,-150 533,-137 563,-126"/>
<polygon style="fill:#009c82;stroke:#009c82;" points="564.427,-129.226 573,-123 562.416,-122.521 564.427,-129.226"/>
<text text-anchor="middle" x="544" y="-148.9" style="font-family:Times New Roman;font-size:14.00;">Cycle 3 (1)</text>
</g>
<!-- wfadaptor.tasktypes -->
<g id="node6" class="node"><title>wfadaptor.tasktypes</title>
<ellipse style="fill:#0065d6;stroke:#001a29;" cx="302" cy="-108" rx="107.902" ry="18"/>
<text text-anchor="middle" x="302" y="-103.9" style="font-family:Times New Roman;font-size:14.00;fill:#001a29;">wfadaptor.tasktypes</text>
</g>
<!-- wfadaptor.utils&#45;&gt;wfadaptor.tasktypes -->
<g id="edge6" class="edge"><title>wfadaptor.utils&#45;&gt;wfadaptor.tasktypes</title>
<path style="fill:none;stroke:#002f5b;" d="M332,-180C326,-167 319,-150 314,-136"/>
<polygon style="fill:#002f5b;stroke:#002f5b;" points="316.964,-133.985 310,-126 310.464,-136.585 316.964,-133.985"/>
<text text-anchor="middle" x="363" y="-148.9" style="font-family:Times New Roman;font-size:14.00;">Cycle 1 (2)</text>
</g>
<!-- wfadaptor.wfapi&#45;&gt;wfadaptor.models -->
<g id="edge12" class="edge"><title>wfadaptor.wfapi&#45;&gt;wfadaptor.models</title>
<path style="fill:none;stroke:#0065ef;" d="M97,-126C118,-167 175,-271 243,-342 247,-346 251,-350 256,-354"/>
<polygon style="fill:#0065ef;stroke:#0065ef;" points="253.9,-356.8 264,-360 258.1,-351.2 253.9,-356.8"/>
<text text-anchor="middle" x="209" y="-238.9" style="font-family:Times New Roman;font-size:14.00;">Cycle 2 (2)</text>
</g>
<!-- wfadaptor.forms -->
<g id="node4" class="node"><title>wfadaptor.forms</title>
<ellipse style="fill:#0065d6;stroke:#001a29;" cx="388" cy="-18" rx="88.9449" ry="18"/>
<text text-anchor="middle" x="388" y="-13.9" style="font-family:Times New Roman;font-size:14.00;fill:#001a29;">wfadaptor.forms</text>
</g>
<!-- wfadaptor.forms&#45;&gt;wfadaptor.utils -->
<g id="edge14" class="edge"><title>wfadaptor.forms&#45;&gt;wfadaptor.utils</title>
<path style="fill:none;stroke:#002f5b;" d="M417,-35C423,-40 429,-47 432,-54 446,-83 430,-95 419,-126 414,-142 416,-149 404,-162 399,-168 393,-173 387,-177"/>
<polygon style="fill:#002f5b;stroke:#002f5b;" points="385.042,-174.084 378,-182 388.441,-180.203 385.042,-174.084"/>
<text text-anchor="middle" x="473" y="-103.9" style="font-family:Times New Roman;font-size:14.00;">Cycle 1 (1)</text>
</g>
<!-- bpmui.models&#45;&gt;wfadaptor.models -->
<g id="edge16" class="edge"><title>bpmui.models&#45;&gt;wfadaptor.models</title>
<path style="fill:none;stroke:#009c82;" d="M614,-126C611,-165 598,-254 549,-306 524,-332 438,-352 371,-364"/>
<polygon style="fill:#009c82;stroke:#009c82;" points="370.119,-360.607 361,-366 371.492,-367.471 370.119,-360.607"/>
<text text-anchor="middle" x="626" y="-238.9" style="font-family:Times New Roman;font-size:14.00;">Cycle 3 (2)</text>
</g>
<!-- wfadaptor.tasktypes&#45;&gt;wfadaptor.forms -->
<g id="edge18" class="edge"><title>wfadaptor.tasktypes&#45;&gt;wfadaptor.forms</title>
<path style="fill:none;stroke:#002f5b;" d="M319,-90C332,-76 350,-58 364,-43"/>
<polygon style="fill:#002f5b;stroke:#002f5b;" points="366.404,-45.546 371,-36 361.454,-40.5962 366.404,-45.546"/>
<text text-anchor="middle" x="391" y="-58.9" style="font-family:Times New Roman;font-size:14.00;">Cycle 1 (1)</text>
</g>
<!-- wfadaptor.managers&#45;&gt;wfadaptor.utils -->
<g id="edge20" class="edge"><title>wfadaptor.managers&#45;&gt;wfadaptor.utils</title>
<path style="fill:none;stroke:#009c82;" d="M413,-270C399,-256 381,-238 366,-223"/>
<polygon style="fill:#009c82;stroke:#009c82;" points="367.831,-219.951 358,-216 363.221,-225.219 367.831,-219.951"/>
<text text-anchor="middle" x="432" y="-238.9" style="font-family:Times New Roman;font-size:14.00;">Cycle 3 (1)</text>
</g>
</g>
</svg>
