<?xml version="1.0" encoding="UTF-8" standalone="no"?>
<!DOCTYPE svg PUBLIC "-//W3C//DTD SVG 1.0//EN"
 "http://www.w3.org/TR/2001/REC-SVG-20010904/DTD/svg10.dtd" [
 <!ATTLIST svg xmlns:xlink CDATA #FIXED "http://www.w3.org/1999/xlink">
]>
<!-- Generated by libgvc version 2.20.2 (Tue Mar &#160;2 21:46:26 UTC 2010)
 -->
<!-- Title: graphname Pages: 1 -->
<svg width="1222pt" height="314pt"
 viewBox="0.00 0.00 1222.00 314.00" xmlns="http://www.w3.org/2000/svg" xmlns:xlink="http://www.w3.org/1999/xlink">
<g id="graph0" class="graph" transform="scale(1 1) rotate(0) translate(4 310)">
<title>graphname</title>
<polygon style="fill:white;stroke:white;" points="-4,4 -4,-310 1218,-310 1218,4 -4,4"/>
<!-- bpmui -->
<g id="node1" class="node"><title>bpmui</title>
<ellipse style="fill:none;stroke:black;" cx="338" cy="-288" rx="39.8056" ry="18"/>
<text text-anchor="middle" x="338" y="-283.9" style="font-family:Times New Roman;font-size:14.00;">bpmui</text>
</g>
<!-- wfui -->
<g id="node2" class="node"><title>wfui</title>
<ellipse style="fill:none;stroke:black;" cx="51" cy="-198" rx="31.9646" ry="18"/>
<text text-anchor="middle" x="51" y="-193.9" style="font-family:Times New Roman;font-size:14.00;">wfui</text>
</g>
<!-- bpmui&#45;&gt;wfui -->
<g id="edge8" class="edge"><title>bpmui&#45;&gt;wfui</title>
<path style="fill:none;stroke:#00e3f7;" d="M298,-287C214,-283 23,-273 4,-252 -6,-240 5,-226 20,-216"/>
<polygon style="fill:#00e3f7;stroke:#00e3f7;" points="22.1,-218.8 28,-210 17.9,-213.2 22.1,-218.8"/>
<text text-anchor="middle" x="44" y="-238.9" style="font-family:Times New Roman;font-size:14.00;fill:#00e3f7;">Cycle 9 (4)</text>
</g>
<!-- authentication -->
<g id="node3" class="node"><title>authentication</title>
<ellipse style="fill:none;stroke:black;" cx="241" cy="-198" rx="80.8024" ry="18"/>
<text text-anchor="middle" x="241" y="-193.9" style="font-family:Times New Roman;font-size:14.00;">authentication</text>
</g>
<!-- bpmui&#45;&gt;authentication -->
<g id="edge2" class="edge"><title>bpmui&#45;&gt;authentication</title>
<path style="fill:none;stroke:#009a96;" d="M299,-283C262,-278 211,-268 198,-252 191,-242 196,-231 205,-222"/>
<polygon style="fill:#009a96;stroke:#009a96;" points="207.779,-224.219 213,-215 203.169,-218.951 207.779,-224.219"/>
<text text-anchor="middle" x="239" y="-238.9" style="font-family:Times New Roman;font-size:14.00;fill:#009a96;">Cycle 5 (7)</text>
</g>
<!-- wfadaptor -->
<g id="node4" class="node"><title>wfadaptor</title>
<ellipse style="fill:none;stroke:black;" cx="391" cy="-108" rx="59.9551" ry="18"/>
<text text-anchor="middle" x="391" y="-103.9" style="font-family:Times New Roman;font-size:14.00;">wfadaptor</text>
</g>
<!-- bpmui&#45;&gt;wfadaptor -->
<g id="edge4" class="edge"><title>bpmui&#45;&gt;wfadaptor</title>
<path style="fill:none;stroke:#00403c;" d="M355,-272C360,-266 366,-259 369,-252 386,-215 390,-166 391,-136"/>
<polygon style="fill:#00403c;stroke:#00403c;" points="394.5,-136 391,-126 387.5,-136 394.5,-136"/>
<text text-anchor="middle" x="427" y="-193.9" style="font-family:Times New Roman;font-size:14.00;fill:#00403c;">Cycle 6 (34)</text>
</g>
<!-- servicetask -->
<g id="node9" class="node"><title>servicetask</title>
<ellipse style="fill:none;stroke:black;" cx="548" cy="-198" rx="64.1231" ry="18"/>
<text text-anchor="middle" x="548" y="-193.9" style="font-family:Times New Roman;font-size:14.00;">servicetask</text>
</g>
<!-- bpmui&#45;&gt;servicetask -->
<g id="edge6" class="edge"><title>bpmui&#45;&gt;servicetask</title>
<path style="fill:none;stroke:#00ad63;" d="M363,-274C384,-262 414,-246 443,-234 460,-226 478,-220 494,-214"/>
<polygon style="fill:#00ad63;stroke:#00ad63;" points="495.427,-217.226 504,-211 493.416,-210.521 495.427,-217.226"/>
<text text-anchor="middle" x="480" y="-238.9" style="font-family:Times New Roman;font-size:14.00;fill:#00ad63;">Cycle 8 (1)</text>
</g>
<!-- wfui&#45;&gt;bpmui -->
<g id="edge10" class="edge"><title>wfui&#45;&gt;bpmui</title>
<path style="fill:none;stroke:#00e3f7;" d="M66,-214C79,-226 98,-243 118,-252 148,-265 234,-277 289,-283"/>
<polygon style="fill:#00e3f7;stroke:#00e3f7;" points="288.701,-286.488 299,-284 289.398,-279.522 288.701,-286.488"/>
<text text-anchor="middle" x="163" y="-238.9" style="font-family:Times New Roman;font-size:14.00;fill:#00e3f7;">Cycle 9 (4)</text>
</g>
<!-- authentication&#45;&gt;bpmui -->
<g id="edge12" class="edge"><title>authentication&#45;&gt;bpmui</title>
<path style="fill:none;stroke:#009a96;" d="M258,-216C268,-227 282,-240 295,-252 300,-257 305,-261 311,-266"/>
<polygon style="fill:#009a96;stroke:#009a96;" points="308.9,-268.8 319,-272 313.1,-263.2 308.9,-268.8"/>
<text text-anchor="middle" x="332" y="-238.9" style="font-family:Times New Roman;font-size:14.00;fill:#009a96;">Cycle 5 (4)</text>
</g>
<!-- authentication&#45;&gt;wfadaptor -->
<g id="edge14" class="edge"><title>authentication&#45;&gt;wfadaptor</title>
<path style="fill:none;stroke:#0076d0;" d="M255,-180C265,-168 279,-154 295,-144 308,-136 323,-129 336,-124"/>
<polygon style="fill:#0076d0;stroke:#0076d0;" points="338.015,-126.964 346,-120 335.415,-120.464 338.015,-126.964"/>
<text text-anchor="middle" x="332" y="-148.9" style="font-family:Times New Roman;font-size:14.00;fill:#0076d0;">Cycle 7 (2)</text>
</g>
<!-- wfadaptor&#45;&gt;bpmui -->
<g id="edge16" class="edge"><title>wfadaptor&#45;&gt;bpmui</title>
<path style="fill:none;stroke:#00403c;" d="M443,-117C504,-128 600,-151 621,-180 630,-192 623,-200 621,-216 618,-232 621,-241 608,-252 591,-264 461,-278 388,-284"/>
<polygon style="fill:#00403c;stroke:#00403c;" points="387.602,-280.522 378,-285 388.299,-287.488 387.602,-280.522"/>
<text text-anchor="middle" x="662" y="-193.9" style="font-family:Times New Roman;font-size:14.00;fill:#00403c;">Cycle 6 (3)</text>
</g>
<!-- cmisadaptor -->
<g id="node7" class="node"><title>cmisadaptor</title>
<ellipse style="fill:none;stroke:black;" cx="277" cy="-18" rx="68.7933" ry="18"/>
<text text-anchor="middle" x="277" y="-13.9" style="font-family:Times New Roman;font-size:14.00;">cmisadaptor</text>
</g>
<!-- wfadaptor&#45;&gt;cmisadaptor -->
<g id="edge18" class="edge"><title>wfadaptor&#45;&gt;cmisadaptor</title>
<path style="fill:none;stroke:#0076d0;" d="M370,-91C353,-77 327,-57 307,-41"/>
<polygon style="fill:#0076d0;stroke:#0076d0;" points="309.1,-38.2 299,-35 304.9,-43.8 309.1,-38.2"/>
<text text-anchor="middle" x="380" y="-58.9" style="font-family:Times New Roman;font-size:14.00;fill:#0076d0;">Cycle 7 (2)</text>
</g>
<!-- django.contrib.messages -->
<g id="node5" class="node"><title>django.contrib.messages</title>
<ellipse style="fill:none;stroke:black;" cx="844" cy="-288" rx="128.053" ry="18"/>
<text text-anchor="middle" x="844" y="-283.9" style="font-family:Times New Roman;font-size:14.00;">django.contrib.messages</text>
</g>
<!-- django.contrib.auth -->
<g id="node10" class="node"><title>django.contrib.auth</title>
<ellipse style="fill:none;stroke:black;" cx="845" cy="-198" rx="104.927" ry="18"/>
<text text-anchor="middle" x="845" y="-193.9" style="font-family:Times New Roman;font-size:14.00;">django.contrib.auth</text>
</g>
<!-- django.contrib.messages&#45;&gt;django.contrib.auth -->
<g id="edge20" class="edge"><title>django.contrib.messages&#45;&gt;django.contrib.auth</title>
<path style="fill:none;stroke:#002f5b;" d="M813,-271C806,-265 800,-259 797,-252 793,-244 793,-241 797,-234 799,-230 802,-225 805,-222"/>
<polygon style="fill:#002f5b;stroke:#002f5b;" points="807.779,-224.219 813,-215 803.169,-218.951 807.779,-224.219"/>
<text text-anchor="middle" x="834" y="-238.9" style="font-family:Times New Roman;font-size:14.00;fill:#002f5b;">Cycle 1 (4)</text>
</g>
<!-- django.contrib.admin -->
<g id="node6" class="node"><title>django.contrib.admin</title>
<ellipse style="fill:none;stroke:black;" cx="866" cy="-18" rx="111.876" ry="18"/>
<text text-anchor="middle" x="866" y="-13.9" style="font-family:Times New Roman;font-size:14.00;">django.contrib.admin</text>
</g>
<!-- django.contrib.contenttypes -->
<g id="node8" class="node"><title>django.contrib.contenttypes</title>
<ellipse style="fill:none;stroke:black;" cx="1068" cy="-108" rx="145.925" ry="18"/>
<text text-anchor="middle" x="1068" y="-103.9" style="font-family:Times New Roman;font-size:14.00;">django.contrib.contenttypes</text>
</g>
<!-- django.contrib.admin&#45;&gt;django.contrib.contenttypes -->
<g id="edge24" class="edge"><title>django.contrib.admin&#45;&gt;django.contrib.contenttypes</title>
<path style="fill:none;stroke:#009c82;" d="M932,-33C951,-38 972,-45 990,-54 1007,-62 1024,-73 1038,-84"/>
<polygon style="fill:#009c82;stroke:#009c82;" points="1035.9,-86.8 1046,-90 1040.1,-81.2 1035.9,-86.8"/>
<text text-anchor="middle" x="1059" y="-58.9" style="font-family:Times New Roman;font-size:14.00;fill:#009c82;">Cycle 3 (5)</text>
</g>
<!-- django.contrib.admin&#45;&gt;django.contrib.auth -->
<g id="edge22" class="edge"><title>django.contrib.admin&#45;&gt;django.contrib.auth</title>
<path style="fill:none;stroke:#0065ef;" d="M854,-36C845,-50 835,-70 830,-90 823,-117 829,-148 835,-170"/>
<polygon style="fill:#0065ef;stroke:#0065ef;" points="831.774,-171.427 838,-180 838.479,-169.416 831.774,-171.427"/>
<text text-anchor="middle" x="871" y="-103.9" style="font-family:Times New Roman;font-size:14.00;fill:#0065ef;">Cycle 2 (11)</text>
</g>
<!-- cmisadaptor&#45;&gt;authentication -->
<g id="edge26" class="edge"><title>cmisadaptor&#45;&gt;authentication</title>
<path style="fill:none;stroke:#0076d0;" d="M268,-36C261,-50 252,-71 248,-90 242,-117 240,-148 240,-170"/>
<polygon style="fill:#0076d0;stroke:#0076d0;" points="236.5,-170 240,-180 243.5,-170 236.5,-170"/>
<text text-anchor="middle" x="285" y="-103.9" style="font-family:Times New Roman;font-size:14.00;fill:#0076d0;">Cycle 7 (1)</text>
</g>
<!-- django.contrib.contenttypes&#45;&gt;django.contrib.admin -->
<g id="edge28" class="edge"><title>django.contrib.contenttypes&#45;&gt;django.contrib.admin</title>
<path style="fill:none;stroke:#009c82;" d="M984,-93C954,-87 925,-80 912,-72 900,-65 890,-54 883,-44"/>
<polygon style="fill:#009c82;stroke:#009c82;" points="885.8,-41.9 877,-36 880.2,-46.1 885.8,-41.9"/>
<text text-anchor="middle" x="952" y="-58.9" style="font-family:Times New Roman;font-size:14.00;fill:#009c82;">Cycle 3 (2)</text>
</g>
<!-- django.contrib.contenttypes&#45;&gt;django.contrib.auth -->
<g id="edge30" class="edge"><title>django.contrib.contenttypes&#45;&gt;django.contrib.auth</title>
<path style="fill:none;stroke:#00d316;" d="M1030,-126C1006,-136 975,-151 946,-162 931,-168 916,-173 901,-179"/>
<polygon style="fill:#00d316;stroke:#00d316;" points="899.573,-175.774 891,-182 901.584,-182.479 899.573,-175.774"/>
<text text-anchor="middle" x="1022" y="-148.9" style="font-family:Times New Roman;font-size:14.00;fill:#00d316;">Cycle 4 (1)</text>
</g>
<!-- servicetask&#45;&gt;bpmui -->
<g id="edge32" class="edge"><title>servicetask&#45;&gt;bpmui</title>
<path style="fill:none;stroke:#00ad63;" d="M542,-216C537,-228 529,-243 517,-252 497,-266 433,-276 387,-283"/>
<polygon style="fill:#00ad63;stroke:#00ad63;" points="386.602,-279.522 377,-284 387.299,-286.488 386.602,-279.522"/>
<text text-anchor="middle" x="567" y="-238.9" style="font-family:Times New Roman;font-size:14.00;fill:#00ad63;">Cycle 8 (2)</text>
</g>
<!-- django.contrib.auth&#45;&gt;django.contrib.messages -->
<g id="edge34" class="edge"><title>django.contrib.auth&#45;&gt;django.contrib.messages</title>
<path style="fill:none;stroke:#002f5b;" d="M861,-216C865,-221 869,-228 871,-234 873,-241 873,-244 871,-252 870,-255 868,-258 866,-262"/>
<polygon style="fill:#002f5b;stroke:#002f5b;" points="863.332,-259.665 861,-270 869.268,-263.375 863.332,-259.665"/>
<text text-anchor="middle" x="909" y="-238.9" style="font-family:Times New Roman;font-size:14.00;fill:#002f5b;">Cycle 1 (2)</text>
</g>
<!-- django.contrib.auth&#45;&gt;django.contrib.admin -->
<g id="edge36" class="edge"><title>django.contrib.auth&#45;&gt;django.contrib.admin</title>
<path style="fill:none;stroke:#0065ef;" d="M810,-181C774,-161 726,-126 747,-90 760,-66 784,-50 808,-38"/>
<polygon style="fill:#0065ef;stroke:#0065ef;" points="809.283,-41.2598 817,-34 806.44,-34.8631 809.283,-41.2598"/>
<text text-anchor="middle" x="784" y="-103.9" style="font-family:Times New Roman;font-size:14.00;fill:#0065ef;">Cycle 2 (1)</text>
</g>
<!-- django.contrib.auth&#45;&gt;django.contrib.contenttypes -->
<g id="edge38" class="edge"><title>django.contrib.auth&#45;&gt;django.contrib.contenttypes</title>
<path style="fill:none;stroke:#00d316;" d="M846,-180C848,-168 852,-153 862,-144 869,-137 911,-129 956,-122"/>
<polygon style="fill:#00d316;stroke:#00d316;" points="956.398,-125.478 966,-121 955.701,-118.512 956.398,-125.478"/>
<text text-anchor="middle" x="899" y="-148.9" style="font-family:Times New Roman;font-size:14.00;fill:#00d316;">Cycle 4 (3)</text>
</g>
</g>
</svg>
